<svg xmlns="http://www.w3.org/2000/svg" viewBox="0 0 480 480" role="img" aria-labelledby="title desc">
  <title id="title">Hero casting a spell</title>
  <desc id="desc">A stylized silhouette projecting magical energy forward.</desc>
  <defs>
    <linearGradient id="bg" x1="0%" y1="0%" x2="100%" y2="100%">
      <stop stop-color="#0c0c12" offset="0%"/>
      <stop stop-color="#141424" offset="100%"/>
    </linearGradient>
    <linearGradient id="burst" x1="0%" y1="0%" x2="100%" y2="0%">
      <stop stop-color="#b48cff" offset="0%"/>
      <stop stop-color="#69c6ff" offset="100%"/>
    </linearGradient>
    <filter id="glow" x="-20%" y="-20%" width="140%" height="140%">
      <feGaussianBlur stdDeviation="6" result="blur"/>
      <feMerge>
        <feMergeNode in="blur"/>
        <feMergeNode in="SourceGraphic"/>
      </feMerge>
    </filter>
  </defs>
  <rect width="480" height="480" fill="url(#bg)"/>
  <circle cx="140" cy="320" r="80" fill="#1e1e2f" stroke="#2e2e44" stroke-width="6"/>
  <path d="M146 214c-22 6-36 26-39 50l-18 46c-4 10 5 20 15 17l32-9 9 42c2 11 17 12 21 2l18-41 36 24c9 6 21-3 18-13l-12-39c34-3 59-31 57-66-2-40-41-65-82-53l-45 13Z"
        fill="#e4e4f7" stroke="#b3b3d1" stroke-width="6"/>
  <path d="M262 214c40-30 103-21 136 20 10 12 6 30-7 38l-126 76c-13 8-30-2-28-18l10-62c2-11 8-21 15-30z"
        fill="url(#burst)" filter="url(#glow)" opacity="0.9"/>
  <path d="M300 230c18-14 49-13 64 6 6 7 4 17-4 22l-64 39c-9 6-21-1-19-12l5-32c1-7 6-16 11-23z"
        fill="#ffffff" opacity="0.7"/>
  <circle cx="340" cy="220" r="10" fill="#ffffff" opacity="0.9"/>
  <circle cx="364" cy="240" r="8" fill="#c5e3ff" opacity="0.9"/>
  <circle cx="380" cy="264" r="6" fill="#f8d7ff" opacity="0.9"/>
</svg>
